<svg xmlns="http://www.w3.org/2000/svg" viewBox="0 0 64 64">
  <defs>
    <linearGradient id="g" x1="0" y1="0" x2="0" y2="1">
      <stop offset="0%" stop-color="#2E7D9C"/>
      <stop offset="100%" stop-color="#1B2A4A"/>
    </linearGradient>
  </defs>
  <rect width="64" height="64" rx="14" fill="url(#g)"/>
  <path d="M8 38c4 0 4-4 8-4s4 4 8 4 4-4 8-4 4 4 8 4 4-4 8-4 4 4 8 4v10H8z" fill="#D4A843"/>
  <path d="M8 46c4 0 4-3 8-3s4 3 8 3 4-3 8-3 4 3 8 3 4-3 8-3 4 3 8 3v8H8z" fill="#F5F0E8" opacity="0.85"/>
</svg>
